<svg width="1823" height="1163" viewBox="0 0 1823 1163" fill="none" xmlns="http://www.w3.org/2000/svg">
<rect width="1823" height="1163" fill="#0F052F"/>
<path d="M1129 501C1113.8 512.2 1122.67 554.667 1129 570C1120.33 565.667 1100.2 554.8 1089 546C1075 535 1067 504 1076 477C1083.2 455.4 1121 448 1139 447H1318L1279 493H1210C1189.33 494 1144.2 489.8 1129 501Z" fill="#43D9B8" stroke="#43D9B8"/>
<path d="M1188 519L1161 558H1252V592C1221.67 592.333 1157.6 592.8 1144 592C1127 591 1119 586 1102 576C1088.4 568 1070.33 532.333 1065 519C1065.33 534 1069.8 571.6 1085 602C1100.2 632.4 1127.33 639.333 1139 639H1312V519H1188Z" fill="#D9D9D9" stroke="white"/>
<g filter="url(#filter0_i_5_23)">
<path d="M858 637.939H795C801.823 595.029 819.384 500.389 835.047 465.111C850.709 429.833 883.154 450.412 891.015 465.111L939.071 545.734C951.234 518.86 982.596 467.071 996.123 453.53C1009.65 439.989 1038.39 453.53 1038.39 476.247L1082 637.939H1024.6L996.123 516.799L969 604.768C955 632.535 949.42 633.939 946.727 633.939C933.343 633.939 923.403 619.973 917.915 610.768L878.208 516.799L858 637.939Z" fill="#D9D9D9"/>
</g>
<path d="M858 637.939H795C801.823 595.029 819.384 500.389 835.047 465.111C850.709 429.833 883.154 450.412 891.015 465.111L939.071 545.734C951.234 518.86 982.596 467.071 996.123 453.53C1009.65 439.989 1038.39 453.53 1038.39 476.247L1082 637.939H1024.6L996.123 516.799L969 604.768C955 632.535 949.42 633.939 946.727 633.939C933.343 633.939 923.403 619.973 917.915 610.768L878.208 516.799L858 637.939Z" stroke="white"/>
<g filter="url(#filter1_i_5_23)">
<path d="M571.5 447L538 489H681C692.167 493 716 494.2 728 501C740 507.8 741.167 547.333 739.5 562C750.167 553.333 765.4 529 777 501C788.6 473 753.167 453.333 729.5 447H571.5Z" fill="#F5F5F5"/>
</g>
<path d="M571.5 447L538 489H681C692.167 493 716 494.2 728 501C740 507.8 741.167 547.333 739.5 562C750.167 553.333 765.4 529 777 501C788.6 473 753.167 453.333 729.5 447H571.5Z" stroke="white"/>
<path d="M599.5 514H539.5V639.5H726.5C735.667 634.167 758.4 619.7 776 604.5C793.6 589.3 796 568.833 794.5 560.5L793.5 523C790.167 529.667 780.5 546.5 768.5 560.5C756.5 574.5 735.5 577 726.5 576.5H599.5V514Z" fill="#43D9B8" stroke="#43D9B8"/>
<path d="M409.909 647.224L484.394 547.892L486.909 540.077L487.439 531.489L482.587 521.737L477.096 510.701L467.82 501.709L460.07 499.002L385.074 597.307L409.909 647.224Z" fill="#43D9B8"/>
<path d="M409.909 647.224L484.394 547.892L486.909 540.077L487.439 531.489L482.587 521.737L477.096 510.701L467.82 501.709L460.07 499.002L385.074 597.307L409.909 647.224Z" fill="url(#paint0_linear_5_23)"/>
<path d="M412.93 459.222L339.202 559.117L336.746 566.95L336.281 575.542L341.207 585.257L346.781 596.251L356.126 605.172L363.897 607.82L438.143 508.949L412.93 459.222Z" fill="#43D9B8"/>
<path d="M412.93 459.222L339.202 559.117L336.746 566.95L336.281 575.542L341.207 585.257L346.781 596.251L356.126 605.172L363.897 607.82L438.143 508.949L412.93 459.222Z" fill="url(#paint1_linear_5_23)"/>
<g filter="url(#filter2_d_5_23)">
<path d="M451.513 482.768L328.768 482.206L353.347 531.609L476.092 532.172C486.751 533.859 487.378 538.118 484.073 548.212C514.258 505.147 474.943 486.639 451.513 482.768Z" fill="#43D9B8"/>
</g>
<g filter="url(#filter3_d_5_23)">
<path d="M372.577 623.989L495.322 623.619L470.368 574.404L347.622 574.773C336.951 573.167 336.292 568.913 339.52 558.794C309.663 602.087 349.117 620.296 372.577 623.989Z" fill="#43D9B8"/>
</g>
<path d="M548.918 691V644.455H576.827V649.455H554.554V665.182H574.736V670.182H554.554V691H548.918ZM585.378 691V656.091H590.56V661.364H590.923C591.56 659.636 592.711 658.235 594.378 657.159C596.045 656.083 597.923 655.545 600.014 655.545C600.408 655.545 600.901 655.553 601.492 655.568C602.083 655.583 602.529 655.606 602.833 655.636V661.091C602.651 661.045 602.234 660.977 601.583 660.886C600.946 660.78 600.272 660.727 599.56 660.727C597.863 660.727 596.348 661.083 595.014 661.795C593.696 662.492 592.651 663.462 591.878 664.705C591.12 665.932 590.742 667.333 590.742 668.909V691H585.378ZM622.31 691.727C619.158 691.727 616.393 690.977 614.014 689.477C611.651 687.977 609.802 685.879 608.469 683.182C607.151 680.485 606.492 677.333 606.492 673.727C606.492 670.091 607.151 666.917 608.469 664.205C609.802 661.492 611.651 659.386 614.014 657.886C616.393 656.386 619.158 655.636 622.31 655.636C625.461 655.636 628.219 656.386 630.583 657.886C632.961 659.386 634.81 661.492 636.128 664.205C637.461 666.917 638.128 670.091 638.128 673.727C638.128 677.333 637.461 680.485 636.128 683.182C634.81 685.879 632.961 687.977 630.583 689.477C628.219 690.977 625.461 691.727 622.31 691.727ZM622.31 686.909C624.704 686.909 626.673 686.295 628.219 685.068C629.764 683.841 630.908 682.227 631.651 680.227C632.393 678.227 632.764 676.061 632.764 673.727C632.764 671.394 632.393 669.22 631.651 667.205C630.908 665.189 629.764 663.561 628.219 662.318C626.673 661.076 624.704 660.455 622.31 660.455C619.916 660.455 617.946 661.076 616.401 662.318C614.855 663.561 613.711 665.189 612.969 667.205C612.226 669.22 611.855 671.394 611.855 673.727C611.855 676.061 612.226 678.227 612.969 680.227C613.711 682.227 614.855 683.841 616.401 685.068C617.946 686.295 619.916 686.909 622.31 686.909ZM651.679 670V691H646.315V656.091H651.497V661.545H651.952C652.77 659.773 654.012 658.348 655.679 657.273C657.346 656.182 659.497 655.636 662.134 655.636C664.497 655.636 666.565 656.121 668.338 657.091C670.111 658.045 671.49 659.5 672.475 661.455C673.459 663.394 673.952 665.848 673.952 668.818V691H668.588V669.182C668.588 666.439 667.876 664.303 666.452 662.773C665.028 661.227 663.073 660.455 660.588 660.455C658.876 660.455 657.346 660.826 655.997 661.568C654.664 662.311 653.611 663.394 652.838 664.818C652.065 666.242 651.679 667.97 651.679 670ZM698.935 656.091V660.636H680.844V656.091H698.935ZM686.117 647.727H691.48V681C691.48 682.515 691.7 683.652 692.139 684.409C692.594 685.152 693.17 685.652 693.867 685.909C694.579 686.152 695.329 686.273 696.117 686.273C696.708 686.273 697.192 686.242 697.571 686.182C697.95 686.106 698.253 686.045 698.48 686L699.571 690.818C699.208 690.955 698.7 691.091 698.048 691.227C697.397 691.379 696.571 691.455 695.571 691.455C694.056 691.455 692.571 691.129 691.117 690.477C689.677 689.826 688.48 688.833 687.526 687.5C686.586 686.167 686.117 684.485 686.117 682.455V647.727ZM725.753 668.545V673.545H705.389V668.545H725.753ZM749.827 691.727C746.463 691.727 743.562 690.985 741.122 689.5C738.698 688 736.827 685.909 735.509 683.227C734.206 680.53 733.554 677.394 733.554 673.818C733.554 670.242 734.206 667.091 735.509 664.364C736.827 661.621 738.66 659.485 741.009 657.955C743.372 656.409 746.13 655.636 749.281 655.636C751.1 655.636 752.895 655.939 754.668 656.545C756.44 657.152 758.054 658.136 759.509 659.5C760.963 660.848 762.122 662.636 762.986 664.864C763.85 667.091 764.281 669.833 764.281 673.091V675.364H737.372V670.727H758.827C758.827 668.758 758.433 667 757.645 665.455C756.872 663.909 755.766 662.689 754.327 661.795C752.903 660.902 751.221 660.455 749.281 660.455C747.145 660.455 745.297 660.985 743.736 662.045C742.19 663.091 741.001 664.455 740.168 666.136C739.334 667.818 738.918 669.621 738.918 671.545V674.636C738.918 677.273 739.372 679.508 740.281 681.341C741.206 683.159 742.486 684.545 744.122 685.5C745.759 686.439 747.66 686.909 749.827 686.909C751.236 686.909 752.509 686.712 753.645 686.318C754.797 685.909 755.789 685.303 756.622 684.5C757.456 683.682 758.1 682.667 758.554 681.455L763.736 682.909C763.19 684.667 762.274 686.212 760.986 687.545C759.698 688.864 758.107 689.894 756.213 690.636C754.319 691.364 752.19 691.727 749.827 691.727ZM777.804 670V691H772.44V656.091H777.622V661.545H778.077C778.895 659.773 780.137 658.348 781.804 657.273C783.471 656.182 785.622 655.636 788.259 655.636C790.622 655.636 792.69 656.121 794.463 657.091C796.236 658.045 797.615 659.5 798.6 661.455C799.584 663.394 800.077 665.848 800.077 668.818V691H794.713V669.182C794.713 666.439 794.001 664.303 792.577 662.773C791.153 661.227 789.198 660.455 786.713 660.455C785.001 660.455 783.471 660.826 782.122 661.568C780.789 662.311 779.736 663.394 778.963 664.818C778.19 666.242 777.804 667.97 777.804 670ZM823.06 691.727C820.151 691.727 817.583 690.992 815.355 689.523C813.128 688.038 811.386 685.947 810.128 683.25C808.87 680.538 808.242 677.333 808.242 673.636C808.242 669.97 808.87 666.788 810.128 664.091C811.386 661.394 813.136 659.311 815.378 657.841C817.62 656.371 820.211 655.636 823.151 655.636C825.423 655.636 827.219 656.015 828.537 656.773C829.87 657.515 830.886 658.364 831.583 659.318C832.295 660.258 832.848 661.03 833.242 661.636H833.696V644.455H839.06V691H833.878V685.636H833.242C832.848 686.273 832.287 687.076 831.56 688.045C830.833 689 829.795 689.856 828.446 690.614C827.098 691.356 825.302 691.727 823.06 691.727ZM823.787 686.909C825.939 686.909 827.757 686.348 829.242 685.227C830.726 684.091 831.855 682.523 832.628 680.523C833.401 678.508 833.787 676.182 833.787 673.545C833.787 670.939 833.408 668.659 832.651 666.705C831.893 664.735 830.772 663.205 829.287 662.114C827.802 661.008 825.969 660.455 823.787 660.455C821.514 660.455 819.62 661.038 818.105 662.205C816.605 663.356 815.476 664.924 814.719 666.909C813.976 668.879 813.605 671.091 813.605 673.545C813.605 676.03 813.984 678.288 814.742 680.318C815.514 682.333 816.651 683.939 818.151 685.136C819.666 686.318 821.545 686.909 823.787 686.909ZM876.81 691L864.083 644.455H869.81L879.537 682.364H879.992L889.901 644.455H896.264L906.173 682.364H906.628L916.355 644.455H922.083L909.355 691H903.537L893.264 653.909H892.901L882.628 691H876.81ZM939.764 691.727C936.401 691.727 933.499 690.985 931.06 689.5C928.636 688 926.764 685.909 925.446 683.227C924.143 680.53 923.492 677.394 923.492 673.818C923.492 670.242 924.143 667.091 925.446 664.364C926.764 661.621 928.598 659.485 930.946 657.955C933.31 656.409 936.067 655.636 939.219 655.636C941.037 655.636 942.833 655.939 944.605 656.545C946.378 657.152 947.992 658.136 949.446 659.5C950.901 660.848 952.06 662.636 952.923 664.864C953.787 667.091 954.219 669.833 954.219 673.091V675.364H927.31V670.727H948.764C948.764 668.758 948.37 667 947.583 665.455C946.81 663.909 945.704 662.689 944.264 661.795C942.84 660.902 941.158 660.455 939.219 660.455C937.083 660.455 935.234 660.985 933.673 662.045C932.128 663.091 930.939 664.455 930.105 666.136C929.272 667.818 928.855 669.621 928.855 671.545V674.636C928.855 677.273 929.31 679.508 930.219 681.341C931.143 683.159 932.423 684.545 934.06 685.5C935.696 686.439 937.598 686.909 939.764 686.909C941.173 686.909 942.446 686.712 943.583 686.318C944.734 685.909 945.726 685.303 946.56 684.5C947.393 683.682 948.037 682.667 948.492 681.455L953.673 682.909C953.128 684.667 952.211 686.212 950.923 687.545C949.636 688.864 948.045 689.894 946.151 690.636C944.257 691.364 942.128 691.727 939.764 691.727ZM963.105 691V644.455H968.469V661.636H968.923C969.317 661.03 969.863 660.258 970.56 659.318C971.272 658.364 972.287 657.515 973.605 656.773C974.939 656.015 976.742 655.636 979.014 655.636C981.954 655.636 984.545 656.371 986.787 657.841C989.029 659.311 990.779 661.394 992.037 664.091C993.295 666.788 993.923 669.97 993.923 673.636C993.923 677.333 993.295 680.538 992.037 683.25C990.779 685.947 989.037 688.038 986.81 689.523C984.583 690.992 982.014 691.727 979.105 691.727C976.863 691.727 975.067 691.356 973.719 690.614C972.37 689.856 971.333 689 970.605 688.045C969.878 687.076 969.317 686.273 968.923 685.636H968.287V691H963.105ZM968.378 673.545C968.378 676.182 968.764 678.508 969.537 680.523C970.31 682.523 971.439 684.091 972.923 685.227C974.408 686.348 976.226 686.909 978.378 686.909C980.62 686.909 982.492 686.318 983.992 685.136C985.507 683.939 986.643 682.333 987.401 680.318C988.173 678.288 988.56 676.03 988.56 673.545C988.56 671.091 988.181 668.879 987.423 666.909C986.681 664.924 985.552 663.356 984.037 662.205C982.537 661.038 980.651 660.455 978.378 660.455C976.196 660.455 974.363 661.008 972.878 662.114C971.393 663.205 970.272 664.735 969.514 666.705C968.757 668.659 968.378 670.939 968.378 673.545ZM1044.86 663.909L1040.04 665.273C1039.73 664.47 1039.29 663.689 1038.7 662.932C1038.12 662.159 1037.33 661.523 1036.33 661.023C1035.33 660.523 1034.05 660.273 1032.49 660.273C1030.36 660.273 1028.57 660.765 1027.15 661.75C1025.74 662.72 1025.04 663.955 1025.04 665.455C1025.04 666.788 1025.52 667.841 1026.49 668.614C1027.46 669.386 1028.98 670.03 1031.04 670.545L1036.22 671.818C1039.34 672.576 1041.67 673.735 1043.2 675.295C1044.73 676.841 1045.49 678.833 1045.49 681.273C1045.49 683.273 1044.92 685.061 1043.76 686.636C1042.63 688.212 1041.04 689.455 1038.99 690.364C1036.95 691.273 1034.57 691.727 1031.86 691.727C1028.29 691.727 1025.35 690.955 1023.01 689.409C1020.68 687.864 1019.2 685.606 1018.58 682.636L1023.67 681.364C1024.16 683.242 1025.07 684.652 1026.42 685.591C1027.79 686.53 1029.57 687 1031.76 687C1034.26 687 1036.25 686.47 1037.72 685.409C1039.2 684.333 1039.95 683.045 1039.95 681.545C1039.95 680.333 1039.52 679.318 1038.67 678.5C1037.82 677.667 1036.52 677.045 1034.76 676.636L1028.95 675.273C1025.75 674.515 1023.4 673.341 1021.9 671.75C1020.42 670.144 1019.67 668.136 1019.67 665.727C1019.67 663.758 1020.23 662.015 1021.33 660.5C1022.45 658.985 1023.98 657.795 1025.9 656.932C1027.84 656.068 1030.04 655.636 1032.49 655.636C1035.95 655.636 1038.66 656.394 1040.63 657.909C1042.61 659.424 1044.02 661.424 1044.86 663.909ZM1067.75 691.727C1064.6 691.727 1061.83 690.977 1059.45 689.477C1057.09 687.977 1055.24 685.879 1053.91 683.182C1052.59 680.485 1051.93 677.333 1051.93 673.727C1051.93 670.091 1052.59 666.917 1053.91 664.205C1055.24 661.492 1057.09 659.386 1059.45 657.886C1061.83 656.386 1064.6 655.636 1067.75 655.636C1070.9 655.636 1073.66 656.386 1076.02 657.886C1078.4 659.386 1080.25 661.492 1081.57 664.205C1082.9 666.917 1083.57 670.091 1083.57 673.727C1083.57 677.333 1082.9 680.485 1081.57 683.182C1080.25 685.879 1078.4 687.977 1076.02 689.477C1073.66 690.977 1070.9 691.727 1067.75 691.727ZM1067.75 686.909C1070.14 686.909 1072.11 686.295 1073.66 685.068C1075.2 683.841 1076.35 682.227 1077.09 680.227C1077.83 678.227 1078.2 676.061 1078.2 673.727C1078.2 671.394 1077.83 669.22 1077.09 667.205C1076.35 665.189 1075.2 663.561 1073.66 662.318C1072.11 661.076 1070.14 660.455 1067.75 660.455C1065.35 660.455 1063.38 661.076 1061.84 662.318C1060.29 663.561 1059.15 665.189 1058.41 667.205C1057.66 669.22 1057.29 671.394 1057.29 673.727C1057.29 676.061 1057.66 678.227 1058.41 680.227C1059.15 682.227 1060.29 683.841 1061.84 685.068C1063.38 686.295 1065.35 686.909 1067.75 686.909ZM1097.12 644.455V691H1091.75V644.455H1097.12ZM1128.94 676.727V656.091H1134.3V691H1128.94V685.091H1128.58C1127.76 686.864 1126.49 688.371 1124.76 689.614C1123.03 690.841 1120.85 691.455 1118.21 691.455C1116.03 691.455 1114.09 690.977 1112.4 690.023C1110.7 689.053 1109.36 687.598 1108.4 685.659C1107.43 683.705 1106.94 681.242 1106.94 678.273V656.091H1112.3V677.909C1112.3 680.455 1113.02 682.485 1114.44 684C1115.88 685.515 1117.71 686.273 1119.94 686.273C1121.27 686.273 1122.63 685.932 1124.01 685.25C1125.4 684.568 1126.57 683.523 1127.51 682.114C1128.46 680.705 1128.94 678.909 1128.94 676.727ZM1159.31 656.091V660.636H1141.22V656.091H1159.31ZM1146.49 647.727H1151.86V681C1151.86 682.515 1152.07 683.652 1152.51 684.409C1152.97 685.152 1153.54 685.652 1154.24 685.909C1154.95 686.152 1155.7 686.273 1156.49 686.273C1157.08 686.273 1157.57 686.242 1157.95 686.182C1158.32 686.106 1158.63 686.045 1158.86 686L1159.95 690.818C1159.58 690.955 1159.07 691.091 1158.42 691.227C1157.77 691.379 1156.95 691.455 1155.95 691.455C1154.43 691.455 1152.95 691.129 1151.49 690.477C1150.05 689.826 1148.86 688.833 1147.9 687.5C1146.96 686.167 1146.49 684.485 1146.49 682.455V647.727ZM1167.38 691V656.091H1172.74V691H1167.38ZM1170.11 650.273C1169.06 650.273 1168.16 649.917 1167.4 649.205C1166.66 648.492 1166.29 647.636 1166.29 646.636C1166.29 645.636 1166.66 644.78 1167.4 644.068C1168.16 643.356 1169.06 643 1170.11 643C1171.15 643 1172.04 643.356 1172.79 644.068C1173.54 644.78 1173.92 645.636 1173.92 646.636C1173.92 647.636 1173.54 648.492 1172.79 649.205C1172.04 649.917 1171.15 650.273 1170.11 650.273ZM1196.75 691.727C1193.6 691.727 1190.83 690.977 1188.45 689.477C1186.09 687.977 1184.24 685.879 1182.91 683.182C1181.59 680.485 1180.93 677.333 1180.93 673.727C1180.93 670.091 1181.59 666.917 1182.91 664.205C1184.24 661.492 1186.09 659.386 1188.45 657.886C1190.83 656.386 1193.6 655.636 1196.75 655.636C1199.9 655.636 1202.66 656.386 1205.02 657.886C1207.4 659.386 1209.25 661.492 1210.57 664.205C1211.9 666.917 1212.57 670.091 1212.57 673.727C1212.57 677.333 1211.9 680.485 1210.57 683.182C1209.25 685.879 1207.4 687.977 1205.02 689.477C1202.66 690.977 1199.9 691.727 1196.75 691.727ZM1196.75 686.909C1199.14 686.909 1201.11 686.295 1202.66 685.068C1204.2 683.841 1205.35 682.227 1206.09 680.227C1206.83 678.227 1207.2 676.061 1207.2 673.727C1207.2 671.394 1206.83 669.22 1206.09 667.205C1205.35 665.189 1204.2 663.561 1202.66 662.318C1201.11 661.076 1199.14 660.455 1196.75 660.455C1194.35 660.455 1192.38 661.076 1190.84 662.318C1189.29 663.561 1188.15 665.189 1187.41 667.205C1186.66 669.22 1186.29 671.394 1186.29 673.727C1186.29 676.061 1186.66 678.227 1187.41 680.227C1188.15 682.227 1189.29 683.841 1190.84 685.068C1192.38 686.295 1194.35 686.909 1196.75 686.909ZM1226.12 670V691H1220.75V656.091H1225.93V661.545H1226.39C1227.21 659.773 1228.45 658.348 1230.12 657.273C1231.78 656.182 1233.93 655.636 1236.57 655.636C1238.93 655.636 1241 656.121 1242.78 657.091C1244.55 658.045 1245.93 659.5 1246.91 661.455C1247.9 663.394 1248.39 665.848 1248.39 668.818V691H1243.03V669.182C1243.03 666.439 1242.31 664.303 1240.89 662.773C1239.47 661.227 1237.51 660.455 1235.03 660.455C1233.31 660.455 1231.78 660.826 1230.43 661.568C1229.1 662.311 1228.05 663.394 1227.28 664.818C1226.5 666.242 1226.12 667.97 1226.12 670ZM1282.92 663.909L1278.1 665.273C1277.8 664.47 1277.35 663.689 1276.76 662.932C1276.18 662.159 1275.4 661.523 1274.4 661.023C1273.4 660.523 1272.11 660.273 1270.55 660.273C1268.42 660.273 1266.64 660.765 1265.21 661.75C1263.8 662.72 1263.1 663.955 1263.1 665.455C1263.1 666.788 1263.58 667.841 1264.55 668.614C1265.52 669.386 1267.04 670.03 1269.1 670.545L1274.28 671.818C1277.4 672.576 1279.73 673.735 1281.26 675.295C1282.79 676.841 1283.55 678.833 1283.55 681.273C1283.55 683.273 1282.98 685.061 1281.83 686.636C1280.69 688.212 1279.1 689.455 1277.05 690.364C1275.01 691.273 1272.63 691.727 1269.92 691.727C1266.36 691.727 1263.41 690.955 1261.08 689.409C1258.74 687.864 1257.27 685.606 1256.65 682.636L1261.74 681.364C1262.22 683.242 1263.14 684.652 1264.49 685.591C1265.85 686.53 1267.63 687 1269.83 687C1272.33 687 1274.31 686.47 1275.78 685.409C1277.27 684.333 1278.01 683.045 1278.01 681.545C1278.01 680.333 1277.58 679.318 1276.74 678.5C1275.89 677.667 1274.58 677.045 1272.83 676.636L1267.01 675.273C1263.81 674.515 1261.46 673.341 1259.96 671.75C1258.48 670.144 1257.74 668.136 1257.74 665.727C1257.74 663.758 1258.29 662.015 1259.4 660.5C1260.52 658.985 1262.04 657.795 1263.96 656.932C1265.9 656.068 1268.1 655.636 1270.55 655.636C1274.01 655.636 1276.72 656.394 1278.69 657.909C1280.68 659.424 1282.08 661.424 1282.92 663.909Z" fill="white"/>
<defs>
<filter id="filter0_i_5_23" x="794.414" y="445.132" width="288.239" height="197.306" filterUnits="userSpaceOnUse" color-interpolation-filters="sRGB">
<feFlood flood-opacity="0" result="BackgroundImageFix"/>
<feBlend mode="normal" in="SourceGraphic" in2="BackgroundImageFix" result="shape"/>
<feColorMatrix in="SourceAlpha" type="matrix" values="0 0 0 0 0 0 0 0 0 0 0 0 0 0 0 0 0 0 127 0" result="hardAlpha"/>
<feOffset dy="4"/>
<feGaussianBlur stdDeviation="2"/>
<feComposite in2="hardAlpha" operator="arithmetic" k2="-1" k3="1"/>
<feColorMatrix type="matrix" values="0 0 0 0 0 0 0 0 0 0 0 0 0 0 0 0 0 0 0.25 0"/>
<feBlend mode="normal" in2="shape" result="effect1_innerShadow_5_23"/>
</filter>
<filter id="filter1_i_5_23" x="536.962" y="446.5" width="242.81" height="120.66" filterUnits="userSpaceOnUse" color-interpolation-filters="sRGB">
<feFlood flood-opacity="0" result="BackgroundImageFix"/>
<feBlend mode="normal" in="SourceGraphic" in2="BackgroundImageFix" result="shape"/>
<feColorMatrix in="SourceAlpha" type="matrix" values="0 0 0 0 0 0 0 0 0 0 0 0 0 0 0 0 0 0 127 0" result="hardAlpha"/>
<feOffset dy="4"/>
<feGaussianBlur stdDeviation="2"/>
<feComposite in2="hardAlpha" operator="arithmetic" k2="-1" k3="1"/>
<feColorMatrix type="matrix" values="0 0 0 0 0 0 0 0 0 0 0 0 0 0 0 0 0 0 0.25 0"/>
<feBlend mode="normal" in2="shape" result="effect1_innerShadow_5_23"/>
</filter>
<filter id="filter2_d_5_23" x="324.768" y="482.206" width="174.256" height="85.0063" filterUnits="userSpaceOnUse" color-interpolation-filters="sRGB">
<feFlood flood-opacity="0" result="BackgroundImageFix"/>
<feColorMatrix in="SourceAlpha" type="matrix" values="0 0 0 0 0 0 0 0 0 0 0 0 0 0 0 0 0 0 127 0" result="hardAlpha"/>
<feOffset dy="15"/>
<feGaussianBlur stdDeviation="2"/>
<feComposite in2="hardAlpha" operator="out"/>
<feColorMatrix type="matrix" values="0 0 0 0 0 0 0 0 0 0 0 0 0 0 0 0 0 0 0.25 0"/>
<feBlend mode="normal" in2="BackgroundImageFix" result="effect1_dropShadow_5_23"/>
<feBlend mode="normal" in="SourceGraphic" in2="effect1_dropShadow_5_23" result="shape"/>
</filter>
<filter id="filter3_d_5_23" x="328.786" y="558.794" width="185.536" height="84.1943" filterUnits="userSpaceOnUse" color-interpolation-filters="sRGB">
<feFlood flood-opacity="0" result="BackgroundImageFix"/>
<feColorMatrix in="SourceAlpha" type="matrix" values="0 0 0 0 0 0 0 0 0 0 0 0 0 0 0 0 0 0 127 0" result="hardAlpha"/>
<feOffset dx="15" dy="15"/>
<feGaussianBlur stdDeviation="2"/>
<feComposite in2="hardAlpha" operator="out"/>
<feColorMatrix type="matrix" values="0 0 0 0 0 0 0 0 0 0 0 0 0 0 0 0 0 0 0.25 0"/>
<feBlend mode="normal" in2="BackgroundImageFix" result="effect1_dropShadow_5_23"/>
<feBlend mode="normal" in="SourceGraphic" in2="effect1_dropShadow_5_23" result="shape"/>
</filter>
<linearGradient id="paint0_linear_5_23" x1="449.855" y1="510.647" x2="384.371" y2="596.216" gradientUnits="userSpaceOnUse">
<stop stop-color="#A3D4CA"/>
<stop offset="0.400266" stop-color="#728EAC"/>
<stop offset="0.972675" stop-color="#0F052F"/>
</linearGradient>
<linearGradient id="paint1_linear_5_23" x1="374.022" y1="596.098" x2="438.855" y2="510.034" gradientUnits="userSpaceOnUse">
<stop stop-color="#A3D4CA"/>
<stop offset="0.400266" stop-color="#728EAC"/>
<stop offset="0.972675" stop-color="#0F052F"/>
</linearGradient>
</defs>
</svg>
