<svg width="1008" height="383" viewBox="0 0 1008 383" fill="none" xmlns="http://www.w3.org/2000/svg">
<g clip-path="url(#clip0_5_23)">
<rect width="1008" height="383" fill="#0F052F"/>
<path d="M775.486 124.216C760.527 135.588 769.253 178.705 775.486 194.273C766.957 189.873 747.143 178.84 736.121 169.905C722.343 158.737 714.47 127.262 723.327 99.8482C730.413 77.9173 767.613 70.4039 785.327 69.3886H961.484L923.103 116.093H855.199C834.861 117.109 790.444 112.844 775.486 124.216Z" fill="#43D9B8" stroke="#43D9B8"/>
<path d="M833.549 142.492L806.977 182.089H896.532V216.61C866.681 216.948 803.631 217.422 790.247 216.61C773.517 215.595 765.644 210.518 748.914 200.365C735.53 192.242 717.751 156.029 712.502 142.492C712.83 157.721 717.226 195.898 732.184 226.763C747.143 257.629 773.845 264.669 785.327 264.33H955.579V142.492H833.549Z" fill="#D9D9D9" stroke="white"/>
<g filter="url(#filter0_i_5_23)">
<path d="M508.79 263.253H446.79C453.504 219.685 470.787 123.596 486.201 87.7773C501.615 51.9587 533.544 72.8529 541.281 87.7774L588.573 169.636C600.542 142.35 631.406 89.7672 644.718 76.0186C658.03 62.2701 686.318 76.0186 686.318 99.0837L729.232 263.253H672.744L644.718 140.257L618.027 229.573C604.249 257.766 598.758 259.191 596.108 259.191C582.936 259.191 573.153 245.012 567.753 235.665L528.676 140.257L508.79 263.253Z" fill="#D9D9D9"/>
</g>
<path d="M508.79 263.253H446.79C453.504 219.685 470.787 123.596 486.201 87.7773C501.615 51.9587 533.544 72.8529 541.281 87.7774L588.573 169.636C600.542 142.35 631.406 89.7672 644.718 76.0186C658.03 62.2701 686.318 76.0186 686.318 99.0837L729.232 263.253H672.744L644.718 140.257L618.027 229.573C604.249 257.766 598.758 259.191 596.108 259.191C582.936 259.191 573.153 245.012 567.753 235.665L528.676 140.257L508.79 263.253Z" stroke="white"/>
<g filter="url(#filter1_i_5_23)">
<path d="M226.839 69.3886L193.872 112.032H334.6C345.59 116.093 369.045 117.312 380.854 124.216C392.663 131.12 393.812 171.259 392.171 186.15C402.669 177.351 417.66 152.645 429.076 124.216C440.492 95.787 405.621 75.819 382.33 69.3886H226.839Z" fill="#F5F5F5"/>
</g>
<path d="M226.839 69.3886L193.872 112.032H334.6C345.59 116.093 369.045 117.312 380.854 124.216C392.663 131.12 393.812 171.259 392.171 186.15C402.669 177.351 417.66 152.645 429.076 124.216C440.492 95.787 405.621 75.819 382.33 69.3886H226.839Z" stroke="white"/>
<path d="M254.395 137.415H195.348V264.838H379.378C388.399 259.423 410.771 244.734 428.092 229.302C445.412 213.869 447.774 193.088 446.298 184.627L445.314 146.553C442.033 153.322 432.52 170.413 420.711 184.627C408.901 198.842 388.235 201.38 379.378 200.873H254.395V137.415Z" fill="#43D9B8" stroke="#43D9B8"/>
<path d="M85.5747 238.484L136.198 168.833L137.908 163.353L138.268 157.331L134.97 150.493L131.239 142.755L124.934 136.449L119.666 134.551L68.6953 203.483L85.5747 238.484Z" fill="#43D9B8"/>
<path d="M85.5747 238.484L136.198 168.833L137.908 163.353L138.268 157.331L134.97 150.493L131.239 142.755L124.934 136.449L119.666 134.551L68.6953 203.483L85.5747 238.484Z" fill="url(#paint0_linear_5_23)"/>
<path d="M87.6276 106.657L37.5179 176.703L35.8489 182.196L35.5332 188.221L38.8812 195.033L42.6697 202.742L49.0206 208.998L54.302 210.855L104.764 141.526L87.6276 106.657Z" fill="#43D9B8"/>
<path d="M87.6276 106.657L37.5179 176.703L35.8489 182.196L35.5332 188.221L38.8812 195.033L42.6697 202.742L49.0206 208.998L54.302 210.855L104.764 141.526L87.6276 106.657Z" fill="url(#paint1_linear_5_23)"/>
<g filter="url(#filter2_d_5_23)">
<path d="M113.85 123.168L30.4264 122.773L47.1322 157.415L130.556 157.81C137.801 158.993 138.226 161.979 135.98 169.057C156.495 138.86 129.775 125.882 113.85 123.168Z" fill="#43D9B8"/>
</g>
<g filter="url(#filter3_d_5_23)">
<path d="M60.2014 222.192L143.626 221.933L126.666 187.423L43.2411 187.682C35.9882 186.555 35.5407 183.573 37.7345 176.477C17.442 206.834 44.2572 219.602 60.2014 222.192Z" fill="#43D9B8"/>
</g>
<path d="M204.706 347.652V301.106H232.616V306.106H210.343V321.834H230.525V326.834H210.343V347.652H204.706ZM241.167 347.652V312.743H246.349V318.015H246.712C247.349 316.288 248.5 314.887 250.167 313.811C251.833 312.735 253.712 312.197 255.803 312.197C256.197 312.197 256.689 312.205 257.28 312.22C257.871 312.235 258.318 312.258 258.621 312.288V317.743C258.439 317.697 258.023 317.629 257.371 317.538C256.735 317.432 256.061 317.379 255.349 317.379C253.652 317.379 252.136 317.735 250.803 318.447C249.485 319.144 248.439 320.114 247.667 321.356C246.909 322.584 246.53 323.985 246.53 325.561V347.652H241.167ZM278.099 348.379C274.947 348.379 272.182 347.629 269.803 346.129C267.439 344.629 265.591 342.531 264.258 339.834C262.939 337.137 262.28 333.985 262.28 330.379C262.28 326.743 262.939 323.568 264.258 320.856C265.591 318.144 267.439 316.038 269.803 314.538C272.182 313.038 274.947 312.288 278.099 312.288C281.25 312.288 284.008 313.038 286.371 314.538C288.75 316.038 290.599 318.144 291.917 320.856C293.25 323.568 293.917 326.743 293.917 330.379C293.917 333.985 293.25 337.137 291.917 339.834C290.599 342.531 288.75 344.629 286.371 346.129C284.008 347.629 281.25 348.379 278.099 348.379ZM278.099 343.561C280.492 343.561 282.462 342.947 284.008 341.72C285.553 340.493 286.697 338.879 287.439 336.879C288.182 334.879 288.553 332.712 288.553 330.379C288.553 328.046 288.182 325.872 287.439 323.856C286.697 321.841 285.553 320.212 284.008 318.97C282.462 317.728 280.492 317.106 278.099 317.106C275.705 317.106 273.735 317.728 272.189 318.97C270.644 320.212 269.5 321.841 268.758 323.856C268.015 325.872 267.644 328.046 267.644 330.379C267.644 332.712 268.015 334.879 268.758 336.879C269.5 338.879 270.644 340.493 272.189 341.72C273.735 342.947 275.705 343.561 278.099 343.561ZM307.468 326.652V347.652H302.104V312.743H307.286V318.197H307.741C308.559 316.425 309.801 315 311.468 313.925C313.134 312.834 315.286 312.288 317.922 312.288C320.286 312.288 322.354 312.773 324.127 313.743C325.9 314.697 327.278 316.152 328.263 318.106C329.248 320.046 329.741 322.5 329.741 325.47V347.652H324.377V325.834C324.377 323.091 323.665 320.955 322.241 319.425C320.816 317.879 318.862 317.106 316.377 317.106C314.665 317.106 313.134 317.478 311.786 318.22C310.453 318.962 309.4 320.046 308.627 321.47C307.854 322.894 307.468 324.622 307.468 326.652ZM354.724 312.743V317.288H336.633V312.743H354.724ZM341.905 304.379H347.269V337.652C347.269 339.167 347.489 340.303 347.928 341.061C348.383 341.803 348.958 342.303 349.655 342.561C350.367 342.803 351.117 342.925 351.905 342.925C352.496 342.925 352.981 342.894 353.36 342.834C353.739 342.758 354.042 342.697 354.269 342.652L355.36 347.47C354.996 347.606 354.489 347.743 353.837 347.879C353.186 348.031 352.36 348.106 351.36 348.106C349.845 348.106 348.36 347.781 346.905 347.129C345.466 346.478 344.269 345.485 343.314 344.152C342.375 342.818 341.905 341.137 341.905 339.106V304.379ZM381.542 325.197V330.197H361.178V325.197H381.542ZM405.616 348.379C402.252 348.379 399.35 347.637 396.911 346.152C394.487 344.652 392.616 342.561 391.297 339.879C389.994 337.182 389.343 334.046 389.343 330.47C389.343 326.894 389.994 323.743 391.297 321.015C392.616 318.273 394.449 316.137 396.797 314.606C399.161 313.061 401.919 312.288 405.07 312.288C406.888 312.288 408.684 312.591 410.456 313.197C412.229 313.803 413.843 314.788 415.297 316.152C416.752 317.5 417.911 319.288 418.775 321.515C419.638 323.743 420.07 326.485 420.07 329.743V332.015H393.161V327.379H414.616C414.616 325.409 414.222 323.652 413.434 322.106C412.661 320.561 411.555 319.341 410.116 318.447C408.691 317.553 407.009 317.106 405.07 317.106C402.934 317.106 401.085 317.637 399.525 318.697C397.979 319.743 396.79 321.106 395.956 322.788C395.123 324.47 394.706 326.273 394.706 328.197V331.288C394.706 333.925 395.161 336.159 396.07 337.993C396.994 339.811 398.275 341.197 399.911 342.152C401.547 343.091 403.449 343.561 405.616 343.561C407.025 343.561 408.297 343.364 409.434 342.97C410.585 342.561 411.578 341.955 412.411 341.152C413.244 340.334 413.888 339.318 414.343 338.106L419.525 339.561C418.979 341.318 418.063 342.864 416.775 344.197C415.487 345.515 413.896 346.546 412.002 347.288C410.108 348.015 407.979 348.379 405.616 348.379ZM433.593 326.652V347.652H428.229V312.743H433.411V318.197H433.866C434.684 316.425 435.926 315 437.593 313.925C439.259 312.834 441.411 312.288 444.047 312.288C446.411 312.288 448.479 312.773 450.252 313.743C452.025 314.697 453.403 316.152 454.388 318.106C455.373 320.046 455.866 322.5 455.866 325.47V347.652H450.502V325.834C450.502 323.091 449.79 320.955 448.366 319.425C446.941 317.879 444.987 317.106 442.502 317.106C440.79 317.106 439.259 317.478 437.911 318.22C436.578 318.962 435.525 320.046 434.752 321.47C433.979 322.894 433.593 324.622 433.593 326.652ZM478.849 348.379C475.939 348.379 473.371 347.644 471.144 346.175C468.917 344.69 467.174 342.599 465.917 339.902C464.659 337.19 464.03 333.985 464.03 330.288C464.03 326.622 464.659 323.44 465.917 320.743C467.174 318.046 468.924 315.962 471.167 314.493C473.409 313.023 476 312.288 478.939 312.288C481.212 312.288 483.008 312.667 484.326 313.425C485.659 314.167 486.674 315.015 487.371 315.97C488.083 316.909 488.636 317.682 489.03 318.288H489.485V301.106H494.849V347.652H489.667V342.288H489.03C488.636 342.925 488.076 343.728 487.349 344.697C486.621 345.652 485.583 346.508 484.235 347.265C482.886 348.008 481.091 348.379 478.849 348.379ZM479.576 343.561C481.727 343.561 483.545 343 485.03 341.879C486.515 340.743 487.644 339.175 488.417 337.175C489.189 335.159 489.576 332.834 489.576 330.197C489.576 327.591 489.197 325.311 488.439 323.356C487.682 321.387 486.561 319.856 485.076 318.765C483.591 317.659 481.758 317.106 479.576 317.106C477.303 317.106 475.409 317.69 473.894 318.856C472.394 320.008 471.265 321.576 470.508 323.561C469.765 325.531 469.394 327.743 469.394 330.197C469.394 332.682 469.773 334.94 470.53 336.97C471.303 338.985 472.439 340.591 473.939 341.788C475.455 342.97 477.333 343.561 479.576 343.561ZM532.599 347.652L519.871 301.106H525.599L535.326 339.015H535.78L545.689 301.106H552.053L561.962 339.015H562.417L572.144 301.106H577.871L565.144 347.652H559.326L549.053 310.561H548.689L538.417 347.652H532.599ZM595.553 348.379C592.189 348.379 589.288 347.637 586.849 346.152C584.424 344.652 582.553 342.561 581.235 339.879C579.932 337.182 579.28 334.046 579.28 330.47C579.28 326.894 579.932 323.743 581.235 321.015C582.553 318.273 584.386 316.137 586.735 314.606C589.099 313.061 591.856 312.288 595.008 312.288C596.826 312.288 598.621 312.591 600.394 313.197C602.167 313.803 603.78 314.788 605.235 316.152C606.689 317.5 607.849 319.288 608.712 321.515C609.576 323.743 610.008 326.485 610.008 329.743V332.015H583.099V327.379H604.553C604.553 325.409 604.159 323.652 603.371 322.106C602.599 320.561 601.492 319.341 600.053 318.447C598.629 317.553 596.947 317.106 595.008 317.106C592.871 317.106 591.023 317.637 589.462 318.697C587.917 319.743 586.727 321.106 585.894 322.788C585.061 324.47 584.644 326.273 584.644 328.197V331.288C584.644 333.925 585.099 336.159 586.008 337.993C586.932 339.811 588.212 341.197 589.849 342.152C591.485 343.091 593.386 343.561 595.553 343.561C596.962 343.561 598.235 343.364 599.371 342.97C600.523 342.561 601.515 341.955 602.349 341.152C603.182 340.334 603.826 339.318 604.28 338.106L609.462 339.561C608.917 341.318 608 342.864 606.712 344.197C605.424 345.515 603.833 346.546 601.939 347.288C600.045 348.015 597.917 348.379 595.553 348.379ZM618.894 347.652V301.106H624.258V318.288H624.712C625.106 317.682 625.652 316.909 626.349 315.97C627.061 315.015 628.076 314.167 629.394 313.425C630.727 312.667 632.53 312.288 634.803 312.288C637.742 312.288 640.333 313.023 642.576 314.493C644.818 315.962 646.568 318.046 647.826 320.743C649.083 323.44 649.712 326.622 649.712 330.288C649.712 333.985 649.083 337.19 647.826 339.902C646.568 342.599 644.826 344.69 642.599 346.175C640.371 347.644 637.803 348.379 634.894 348.379C632.652 348.379 630.856 348.008 629.508 347.265C628.159 346.508 627.121 345.652 626.394 344.697C625.667 343.728 625.106 342.925 624.712 342.288H624.076V347.652H618.894ZM624.167 330.197C624.167 332.834 624.553 335.159 625.326 337.175C626.099 339.175 627.227 340.743 628.712 341.879C630.197 343 632.015 343.561 634.167 343.561C636.409 343.561 638.28 342.97 639.78 341.788C641.295 340.591 642.432 338.985 643.189 336.97C643.962 334.94 644.349 332.682 644.349 330.197C644.349 327.743 643.97 325.531 643.212 323.561C642.47 321.576 641.341 320.008 639.826 318.856C638.326 317.69 636.439 317.106 634.167 317.106C631.985 317.106 630.152 317.659 628.667 318.765C627.182 319.856 626.061 321.387 625.303 323.356C624.545 325.311 624.167 327.591 624.167 330.197ZM700.644 320.561L695.826 321.925C695.523 321.122 695.076 320.341 694.485 319.584C693.909 318.811 693.121 318.175 692.121 317.675C691.121 317.175 689.841 316.925 688.28 316.925C686.144 316.925 684.364 317.417 682.939 318.402C681.53 319.372 680.826 320.606 680.826 322.106C680.826 323.44 681.311 324.493 682.28 325.265C683.25 326.038 684.765 326.682 686.826 327.197L692.008 328.47C695.129 329.228 697.455 330.387 698.985 331.947C700.515 333.493 701.28 335.485 701.28 337.925C701.28 339.925 700.705 341.712 699.553 343.288C698.417 344.864 696.826 346.106 694.78 347.015C692.735 347.925 690.356 348.379 687.644 348.379C684.083 348.379 681.136 347.606 678.803 346.061C676.47 344.515 674.992 342.258 674.371 339.288L679.462 338.015C679.947 339.894 680.864 341.303 682.212 342.243C683.576 343.182 685.356 343.652 687.553 343.652C690.053 343.652 692.038 343.122 693.508 342.061C694.992 340.985 695.735 339.697 695.735 338.197C695.735 336.985 695.311 335.97 694.462 335.152C693.614 334.318 692.311 333.697 690.553 333.288L684.735 331.925C681.538 331.167 679.189 329.993 677.689 328.402C676.205 326.796 675.462 324.788 675.462 322.379C675.462 320.409 676.015 318.667 677.121 317.152C678.242 315.637 679.765 314.447 681.689 313.584C683.629 312.72 685.826 312.288 688.28 312.288C691.735 312.288 694.447 313.046 696.417 314.561C698.402 316.076 699.811 318.076 700.644 320.561ZM723.536 348.379C720.384 348.379 717.619 347.629 715.241 346.129C712.877 344.629 711.028 342.531 709.695 339.834C708.377 337.137 707.718 333.985 707.718 330.379C707.718 326.743 708.377 323.568 709.695 320.856C711.028 318.144 712.877 316.038 715.241 314.538C717.619 313.038 720.384 312.288 723.536 312.288C726.687 312.288 729.445 313.038 731.809 314.538C734.187 316.038 736.036 318.144 737.354 320.856C738.687 323.568 739.354 326.743 739.354 330.379C739.354 333.985 738.687 337.137 737.354 339.834C736.036 342.531 734.187 344.629 731.809 346.129C729.445 347.629 726.687 348.379 723.536 348.379ZM723.536 343.561C725.93 343.561 727.9 342.947 729.445 341.72C730.991 340.493 732.134 338.879 732.877 336.879C733.619 334.879 733.991 332.712 733.991 330.379C733.991 328.046 733.619 325.872 732.877 323.856C732.134 321.841 730.991 320.212 729.445 318.97C727.9 317.728 725.93 317.106 723.536 317.106C721.142 317.106 719.172 317.728 717.627 318.97C716.081 320.212 714.937 321.841 714.195 323.856C713.453 325.872 713.081 328.046 713.081 330.379C713.081 332.712 713.453 334.879 714.195 336.879C714.937 338.879 716.081 340.493 717.627 341.72C719.172 342.947 721.142 343.561 723.536 343.561ZM752.905 301.106V347.652H747.542V301.106H752.905ZM784.729 333.379V312.743H790.093V347.652H784.729V341.743H784.366C783.547 343.515 782.275 345.023 780.547 346.265C778.82 347.493 776.638 348.106 774.002 348.106C771.82 348.106 769.881 347.629 768.184 346.675C766.487 345.705 765.153 344.25 764.184 342.311C763.214 340.356 762.729 337.894 762.729 334.925V312.743H768.093V334.561C768.093 337.106 768.805 339.137 770.229 340.652C771.669 342.167 773.502 342.925 775.729 342.925C777.062 342.925 778.419 342.584 779.797 341.902C781.191 341.22 782.358 340.175 783.297 338.765C784.252 337.356 784.729 335.561 784.729 333.379ZM815.098 312.743V317.288H797.008V312.743H815.098ZM802.28 304.379H807.644V337.652C807.644 339.167 807.864 340.303 808.303 341.061C808.758 341.803 809.333 342.303 810.03 342.561C810.742 342.803 811.492 342.925 812.28 342.925C812.871 342.925 813.356 342.894 813.735 342.834C814.114 342.758 814.417 342.697 814.644 342.652L815.735 347.47C815.371 347.606 814.864 347.743 814.212 347.879C813.561 348.031 812.735 348.106 811.735 348.106C810.22 348.106 808.735 347.781 807.28 347.129C805.841 346.478 804.644 345.485 803.689 344.152C802.75 342.818 802.28 341.137 802.28 339.106V304.379ZM823.167 347.652V312.743H828.53V347.652H823.167ZM825.894 306.925C824.848 306.925 823.947 306.568 823.189 305.856C822.447 305.144 822.076 304.288 822.076 303.288C822.076 302.288 822.447 301.432 823.189 300.72C823.947 300.008 824.848 299.652 825.894 299.652C826.939 299.652 827.833 300.008 828.576 300.72C829.333 301.432 829.712 302.288 829.712 303.288C829.712 304.288 829.333 305.144 828.576 305.856C827.833 306.568 826.939 306.925 825.894 306.925ZM852.536 348.379C849.384 348.379 846.619 347.629 844.241 346.129C841.877 344.629 840.028 342.531 838.695 339.834C837.377 337.137 836.718 333.985 836.718 330.379C836.718 326.743 837.377 323.568 838.695 320.856C840.028 318.144 841.877 316.038 844.241 314.538C846.619 313.038 849.384 312.288 852.536 312.288C855.687 312.288 858.445 313.038 860.809 314.538C863.187 316.038 865.036 318.144 866.354 320.856C867.687 323.568 868.354 326.743 868.354 330.379C868.354 333.985 867.687 337.137 866.354 339.834C865.036 342.531 863.187 344.629 860.809 346.129C858.445 347.629 855.687 348.379 852.536 348.379ZM852.536 343.561C854.93 343.561 856.9 342.947 858.445 341.72C859.991 340.493 861.134 338.879 861.877 336.879C862.619 334.879 862.991 332.712 862.991 330.379C862.991 328.046 862.619 325.872 861.877 323.856C861.134 321.841 859.991 320.212 858.445 318.97C856.9 317.728 854.93 317.106 852.536 317.106C850.142 317.106 848.172 317.728 846.627 318.97C845.081 320.212 843.937 321.841 843.195 323.856C842.453 325.872 842.081 328.046 842.081 330.379C842.081 332.712 842.453 334.879 843.195 336.879C843.937 338.879 845.081 340.493 846.627 341.72C848.172 342.947 850.142 343.561 852.536 343.561ZM881.905 326.652V347.652H876.542V312.743H881.723V318.197H882.178C882.996 316.425 884.239 315 885.905 313.925C887.572 312.834 889.723 312.288 892.36 312.288C894.723 312.288 896.792 312.773 898.564 313.743C900.337 314.697 901.716 316.152 902.701 318.106C903.686 320.046 904.178 322.5 904.178 325.47V347.652H898.814V325.834C898.814 323.091 898.102 320.955 896.678 319.425C895.254 317.879 893.299 317.106 890.814 317.106C889.102 317.106 887.572 317.478 886.223 318.22C884.89 318.962 883.837 320.046 883.064 321.47C882.292 322.894 881.905 324.622 881.905 326.652ZM938.706 320.561L933.888 321.925C933.585 321.122 933.138 320.341 932.547 319.584C931.972 318.811 931.184 318.175 930.184 317.675C929.184 317.175 927.903 316.925 926.343 316.925C924.206 316.925 922.426 317.417 921.002 318.402C919.593 319.372 918.888 320.606 918.888 322.106C918.888 323.44 919.373 324.493 920.343 325.265C921.312 326.038 922.828 326.682 924.888 327.197L930.07 328.47C933.191 329.228 935.517 330.387 937.047 331.947C938.578 333.493 939.343 335.485 939.343 337.925C939.343 339.925 938.767 341.712 937.616 343.288C936.479 344.864 934.888 346.106 932.843 347.015C930.797 347.925 928.419 348.379 925.706 348.379C922.146 348.379 919.199 347.606 916.866 346.061C914.532 344.515 913.055 342.258 912.434 339.288L917.525 338.015C918.009 339.894 918.926 341.303 920.275 342.243C921.638 343.182 923.419 343.652 925.616 343.652C928.116 343.652 930.1 343.122 931.57 342.061C933.055 340.985 933.797 339.697 933.797 338.197C933.797 336.985 933.373 335.97 932.525 335.152C931.676 334.318 930.373 333.697 928.616 333.288L922.797 331.925C919.6 331.167 917.252 329.993 915.752 328.402C914.267 326.796 913.525 324.788 913.525 322.379C913.525 320.409 914.078 318.667 915.184 317.152C916.305 315.637 917.828 314.447 919.752 313.584C921.691 312.72 923.888 312.288 926.343 312.288C929.797 312.288 932.509 313.046 934.479 314.561C936.464 316.076 937.873 318.076 938.706 320.561Z" fill="white"/>
</g>
<defs>
<filter id="filter0_i_5_23" x="446.207" y="67.5001" width="283.672" height="200.253" filterUnits="userSpaceOnUse" color-interpolation-filters="sRGB">
<feFlood flood-opacity="0" result="BackgroundImageFix"/>
<feBlend mode="normal" in="SourceGraphic" in2="BackgroundImageFix" result="shape"/>
<feColorMatrix in="SourceAlpha" type="matrix" values="0 0 0 0 0 0 0 0 0 0 0 0 0 0 0 0 0 0 127 0" result="hardAlpha"/>
<feOffset dy="4"/>
<feGaussianBlur stdDeviation="2"/>
<feComposite in2="hardAlpha" operator="arithmetic" k2="-1" k3="1"/>
<feColorMatrix type="matrix" values="0 0 0 0 0 0 0 0 0 0 0 0 0 0 0 0 0 0 0.25 0"/>
<feBlend mode="normal" in2="shape" result="effect1_innerShadow_5_23"/>
</filter>
<filter id="filter1_i_5_23" x="192.853" y="68.8886" width="238.958" height="122.445" filterUnits="userSpaceOnUse" color-interpolation-filters="sRGB">
<feFlood flood-opacity="0" result="BackgroundImageFix"/>
<feBlend mode="normal" in="SourceGraphic" in2="BackgroundImageFix" result="shape"/>
<feColorMatrix in="SourceAlpha" type="matrix" values="0 0 0 0 0 0 0 0 0 0 0 0 0 0 0 0 0 0 127 0" result="hardAlpha"/>
<feOffset dy="4"/>
<feGaussianBlur stdDeviation="2"/>
<feComposite in2="hardAlpha" operator="arithmetic" k2="-1" k3="1"/>
<feColorMatrix type="matrix" values="0 0 0 0 0 0 0 0 0 0 0 0 0 0 0 0 0 0 0.25 0"/>
<feBlend mode="normal" in2="shape" result="effect1_innerShadow_5_23"/>
</filter>
<filter id="filter2_d_5_23" x="26.4264" y="122.773" width="120.997" height="65.2837" filterUnits="userSpaceOnUse" color-interpolation-filters="sRGB">
<feFlood flood-opacity="0" result="BackgroundImageFix"/>
<feColorMatrix in="SourceAlpha" type="matrix" values="0 0 0 0 0 0 0 0 0 0 0 0 0 0 0 0 0 0 127 0" result="hardAlpha"/>
<feOffset dy="15"/>
<feGaussianBlur stdDeviation="2"/>
<feComposite in2="hardAlpha" operator="out"/>
<feColorMatrix type="matrix" values="0 0 0 0 0 0 0 0 0 0 0 0 0 0 0 0 0 0 0.25 0"/>
<feBlend mode="normal" in2="BackgroundImageFix" result="effect1_dropShadow_5_23"/>
<feBlend mode="normal" in="SourceGraphic" in2="effect1_dropShadow_5_23" result="shape"/>
</filter>
<filter id="filter3_d_5_23" x="30.4389" y="176.477" width="132.187" height="64.7143" filterUnits="userSpaceOnUse" color-interpolation-filters="sRGB">
<feFlood flood-opacity="0" result="BackgroundImageFix"/>
<feColorMatrix in="SourceAlpha" type="matrix" values="0 0 0 0 0 0 0 0 0 0 0 0 0 0 0 0 0 0 127 0" result="hardAlpha"/>
<feOffset dx="15" dy="15"/>
<feGaussianBlur stdDeviation="2"/>
<feComposite in2="hardAlpha" operator="out"/>
<feColorMatrix type="matrix" values="0 0 0 0 0 0 0 0 0 0 0 0 0 0 0 0 0 0 0.25 0"/>
<feBlend mode="normal" in2="BackgroundImageFix" result="effect1_dropShadow_5_23"/>
<feBlend mode="normal" in="SourceGraphic" in2="effect1_dropShadow_5_23" result="shape"/>
</filter>
<linearGradient id="paint0_linear_5_23" x1="112.724" y1="142.717" x2="66.4516" y2="201.323" gradientUnits="userSpaceOnUse">
<stop stop-color="#A3D4CA"/>
<stop offset="0.400266" stop-color="#728EAC"/>
<stop offset="0.972675" stop-color="#0F052F"/>
</linearGradient>
<linearGradient id="paint1_linear_5_23" x1="61.184" y1="202.635" x2="107.017" y2="143.662" gradientUnits="userSpaceOnUse">
<stop stop-color="#A3D4CA"/>
<stop offset="0.400266" stop-color="#728EAC"/>
<stop offset="0.972675" stop-color="#0F052F"/>
</linearGradient>
<clipPath id="clip0_5_23">
<rect width="1008" height="383" fill="white"/>
</clipPath>
</defs>
</svg>
